<?xml version="1.0" encoding="UTF-8" standalone="no"?>
<svg width="256px" height="256px" viewBox="0 0 256 256" version="1.1" xmlns="http://www.w3.org/2000/svg" xmlns:xlink="http://www.w3.org/1999/xlink">
    <!-- Generator: Sketch 3.6.1 (26313) - http://www.bohemiancoding.com/sketch -->
    <title>signisto-logo</title>
    <desc>Created with Sketch.</desc>
    <defs></defs>
    <g id="Page-1" stroke="none" stroke-width="1" fill="none" fill-rule="evenodd">
        <g id="signisto-logo">
            <g id="logo" transform="translate(53.000000, 43.000000)">
                <path d="M39.0468881,94.569021 L0.956328671,74.6043357 L38.7185664,55.4274126 L76.3496853,74.9987413 L39.0468881,94.569021 Z" id="Fill-1" fill="#51BBE0"></path>
                <path d="M75.4315385,-0.00020979021 L0.956013986,36.2515385 L0.956013986,74.6043357 L38.7193007,55.4284615 L75.4315385,37.8270629 L75.4315385,-0.00020979021 Z" id="Fill-2" fill="#47A5CE"></path>
                <path d="M75.4315385,-0.00020979021 L75.4315385,37.8270629 L112.537133,55.4284615 L149.907063,74.6043357 L149.907063,36.2515385 L75.4315385,-0.00020979021 Z" id="Fill-3" fill="#3F9DBE"></path>
                <path d="M112.602797,75.1297552 L149.906643,95.0944406 L112.602797,114.271364 L75.3,94.700035 L112.602797,75.1297552 Z" id="Fill-4" fill="#51BBE0"></path>
                <path d="M149.906748,133.447552 L75.4312238,169.699301 L75.4312238,131.870979 L112.536818,114.270629 L149.906748,95.0947552 L149.906748,133.447552 Z" id="Fill-5" fill="#47A5CE"></path>
                <path d="M0.955699301,133.447552 L75.4312238,169.699301 L75.4312238,131.870979 L38.718986,114.270629 L0.955699301,95.0947552 L0.955699301,133.447552 Z" id="Fill-6" fill="#3F9DBE"></path>
                <path d="M0.955699301,36.2511189 L0.955699301,74.6039161 L38.718986,55.428042 L0.955699301,36.2511189 Z" id="Fill-7" fill="#2F97BB"></path>
                <path d="M149.906748,36.2511189 L149.906748,74.6039161 L112.536818,55.428042 L149.906748,36.2511189 Z" id="Fill-8" fill="#50B9D5"></path>
                <path d="M149.906748,133.447552 L149.906748,95.0947552 L112.536818,114.270629 L149.906748,133.447552 Z" id="Fill-9" fill="#2F97BB"></path>
                <path d="M0.955699301,133.447552 L0.955699301,95.0947552 L39.0462587,114.270629 L0.955699301,133.447552 Z" id="Fill-10" fill="#50B9D5"></path>
            </g>
        </g>
    </g>
</svg>