<svg viewBox="0 0 800 800" version="1.1" xmlns="http://www.w3.org/2000/svg" xmlns:xlink="http://www.w3.org/1999/xlink" xmlns:sketch="http://www.bohemiancoding.com/sketch/ns">
    <title>logo</title>
    <defs></defs>
    <g id="Main" stroke="white" stroke-width="1" fill="none" fill-rule="evenodd" sketch:type="MSPage">
        <g id="logo" sketch:type="MSArtboardGroup">
            <g id="Bottom-+-Top" sketch:type="MSLayerGroup" transform="translate(115.000000, 10.000000)">
                <g id="Bottom" transform="translate(285.850214, 496.161328) rotate(-180.000000) translate(-285.850214, -496.161328) translate(2.112696, 212.423810)" sketch:type="MSShapeGroup">
                    <path d="M283.231747,424.84762 C205.01946,424.84762 141.615873,361.444034 141.615873,283.231747 C141.615873,205.01946 205.01946,141.615873 283.231747,141.615873 C361.444034,141.615873 424.84762,205.01946 424.84762,283.231747 C424.84762,286.564255 424.732512,289.869879 424.506055,293.144858 L425.536051,293.144858 C430.357077,327.557912 459.913742,354.039684 495.655557,354.039684 C531.397372,354.039684 560.954037,327.557912 565.775063,293.144858 L566.293259,293.144858 L566.293257,293.144916 C566.406439,289.85447 566.463494,286.549772 566.463494,283.231747 C566.463494,126.807172 439.656321,0 283.231747,0 C126.807172,0 -6.32494532e-14,126.807172 -6.32494532e-14,283.231747 C-6.32494532e-14,439.656321 126.807172,566.463494 283.231747,566.463494 C322.33789,566.463494 354.039684,534.761701 354.039684,495.655557 C354.039684,456.549413 322.33789,424.84762 283.231747,424.84762 Z" id="Oval-15"></path>
                </g>
                <g id="Top" sketch:type="MSShapeGroup">
                    <path d="M284.231747,424.84762 C206.01946,424.84762 142.615873,361.444034 142.615873,283.231747 C142.615873,205.01946 206.01946,141.615873 284.231747,141.615873 C362.444034,141.615873 425.84762,205.01946 425.84762,283.231747 C425.84762,286.564255 425.732512,289.869879 425.506055,293.144858 L426.536051,293.144858 C431.357077,327.557912 460.913742,354.039684 496.655557,354.039684 C532.397372,354.039684 561.954037,327.557912 566.775063,293.144858 L567.293259,293.144858 L567.293257,293.144916 C567.406439,289.85447 567.463494,286.549772 567.463494,283.231747 C567.463494,126.807172 440.656321,0 284.231747,0 C127.807172,0 1,126.807172 1,283.231747 C1,439.656321 127.807172,566.463494 284.231747,566.463494 C323.33789,566.463494 355.039684,534.761701 355.039684,495.655557 C355.039684,456.549413 323.33789,424.84762 284.231747,424.84762 Z" id="Oval-15"></path>
                </g>
            </g>
        </g>
    </g>
</svg>
